<svg id="visual" viewBox="0 0 960 540" width="960" height="540" xmlns="http://www.w3.org/2000/svg" xmlns:xlink="http://www.w3.org/1999/xlink" version="1.1"><rect x="0" y="0" width="960" height="540" fill="#514eeb"></rect><path d="M0 294L12.3 298.2C24.7 302.3 49.3 310.7 74 309.2C98.7 307.7 123.3 296.3 148 294.5C172.7 292.7 197.3 300.3 221.8 303.3C246.3 306.3 270.7 304.7 295.2 306.2C319.7 307.7 344.3 312.3 369 312.8C393.7 313.3 418.3 309.7 443 304.7C467.7 299.7 492.3 293.3 517 297.3C541.7 301.3 566.3 315.7 591 318.7C615.7 321.7 640.3 313.3 664.8 310C689.3 306.7 713.7 308.3 738.2 305.7C762.7 303 787.3 296 812 296.8C836.7 297.7 861.3 306.3 886 311.5C910.7 316.7 935.3 318.3 947.7 319.2L960 320L960 541L947.7 541C935.3 541 910.7 541 886 541C861.3 541 836.7 541 812 541C787.3 541 762.7 541 738.2 541C713.7 541 689.3 541 664.8 541C640.3 541 615.7 541 591 541C566.3 541 541.7 541 517 541C492.3 541 467.7 541 443 541C418.3 541 393.7 541 369 541C344.3 541 319.7 541 295.2 541C270.7 541 246.3 541 221.8 541C197.3 541 172.7 541 148 541C123.3 541 98.7 541 74 541C49.3 541 24.7 541 12.3 541L0 541Z" fill="#c817eb"></path><path d="M0 351L12.3 351.3C24.7 351.7 49.3 352.3 74 352.8C98.7 353.3 123.3 353.7 148 352.2C172.7 350.7 197.3 347.3 221.8 347C246.3 346.7 270.7 349.3 295.2 352.2C319.7 355 344.3 358 369 351.3C393.7 344.7 418.3 328.3 443 326.7C467.7 325 492.3 338 517 341.5C541.7 345 566.3 339 591 332.2C615.7 325.3 640.3 317.7 664.8 319.8C689.3 322 713.7 334 738.2 338.8C762.7 343.7 787.3 341.3 812 342.2C836.7 343 861.3 347 886 347.3C910.7 347.7 935.3 344.3 947.7 342.7L960 341L960 541L947.7 541C935.3 541 910.7 541 886 541C861.3 541 836.7 541 812 541C787.3 541 762.7 541 738.2 541C713.7 541 689.3 541 664.8 541C640.3 541 615.7 541 591 541C566.3 541 541.7 541 517 541C492.3 541 467.7 541 443 541C418.3 541 393.7 541 369 541C344.3 541 319.7 541 295.2 541C270.7 541 246.3 541 221.8 541C197.3 541 172.7 541 148 541C123.3 541 98.7 541 74 541C49.3 541 24.7 541 12.3 541L0 541Z" fill="#bc13eb"></path><path d="M0 355L12.3 357C24.7 359 49.3 363 74 360.3C98.7 357.7 123.3 348.3 148 345.7C172.7 343 197.3 347 221.8 351.2C246.3 355.3 270.7 359.7 295.2 358.8C319.7 358 344.3 352 369 353.8C393.7 355.7 418.3 365.3 443 368.2C467.7 371 492.3 367 517 364C541.7 361 566.3 359 591 362.5C615.7 366 640.3 375 664.8 378.2C689.3 381.3 713.7 378.7 738.2 373.3C762.7 368 787.3 360 812 359.5C836.7 359 861.3 366 886 366.5C910.7 367 935.3 361 947.7 358L960 355L960 541L947.7 541C935.3 541 910.7 541 886 541C861.3 541 836.7 541 812 541C787.3 541 762.7 541 738.2 541C713.7 541 689.3 541 664.8 541C640.3 541 615.7 541 591 541C566.3 541 541.7 541 517 541C492.3 541 467.7 541 443 541C418.3 541 393.7 541 369 541C344.3 541 319.7 541 295.2 541C270.7 541 246.3 541 221.8 541C197.3 541 172.7 541 148 541C123.3 541 98.7 541 74 541C49.3 541 24.7 541 12.3 541L0 541Z" fill="#af10eb"></path><path d="M0 374L12.3 376.2C24.7 378.3 49.3 382.7 74 386.5C98.7 390.3 123.3 393.7 148 393.5C172.7 393.3 197.3 389.7 221.8 387.2C246.3 384.7 270.7 383.3 295.2 383C319.7 382.7 344.3 383.3 369 385.5C393.7 387.7 418.3 391.3 443 390.5C467.7 389.7 492.3 384.3 517 383.3C541.7 382.3 566.3 385.7 591 388C615.7 390.3 640.3 391.7 664.8 393.3C689.3 395 713.7 397 738.2 395.7C762.7 394.3 787.3 389.7 812 383.8C836.7 378 861.3 371 886 374.2C910.7 377.3 935.3 390.7 947.7 397.3L960 404L960 541L947.7 541C935.3 541 910.7 541 886 541C861.3 541 836.7 541 812 541C787.3 541 762.7 541 738.2 541C713.7 541 689.3 541 664.8 541C640.3 541 615.7 541 591 541C566.3 541 541.7 541 517 541C492.3 541 467.7 541 443 541C418.3 541 393.7 541 369 541C344.3 541 319.7 541 295.2 541C270.7 541 246.3 541 221.8 541C197.3 541 172.7 541 148 541C123.3 541 98.7 541 74 541C49.3 541 24.7 541 12.3 541L0 541Z" fill="#a10eeb"></path><path d="M0 400L12.3 399C24.7 398 49.3 396 74 394.8C98.7 393.7 123.3 393.3 148 392.8C172.7 392.3 197.3 391.7 221.8 392.8C246.3 394 270.7 397 295.2 401.2C319.7 405.3 344.3 410.7 369 414.7C393.7 418.7 418.3 421.3 443 421.7C467.7 422 492.3 420 517 420.5C541.7 421 566.3 424 591 420.5C615.7 417 640.3 407 664.8 402.2C689.3 397.3 713.7 397.7 738.2 400.8C762.7 404 787.3 410 812 412.2C836.7 414.3 861.3 412.7 886 408.7C910.7 404.7 935.3 398.3 947.7 395.2L960 392L960 541L947.7 541C935.3 541 910.7 541 886 541C861.3 541 836.7 541 812 541C787.3 541 762.7 541 738.2 541C713.7 541 689.3 541 664.8 541C640.3 541 615.7 541 591 541C566.3 541 541.7 541 517 541C492.3 541 467.7 541 443 541C418.3 541 393.7 541 369 541C344.3 541 319.7 541 295.2 541C270.7 541 246.3 541 221.8 541C197.3 541 172.7 541 148 541C123.3 541 98.7 541 74 541C49.3 541 24.7 541 12.3 541L0 541Z" fill="#920eeb"></path><path d="M0 434L12.3 431.3C24.7 428.7 49.3 423.3 74 421C98.7 418.7 123.3 419.3 148 423.5C172.7 427.7 197.3 435.3 221.8 436.2C246.3 437 270.7 431 295.2 429.7C319.7 428.3 344.3 431.7 369 434.8C393.7 438 418.3 441 443 443.3C467.7 445.7 492.3 447.3 517 442.8C541.7 438.3 566.3 427.7 591 427.2C615.7 426.7 640.3 436.3 664.8 438.5C689.3 440.7 713.7 435.3 738.2 435.7C762.7 436 787.3 442 812 441.5C836.7 441 861.3 434 886 431.7C910.7 429.3 935.3 431.7 947.7 432.8L960 434L960 541L947.7 541C935.3 541 910.7 541 886 541C861.3 541 836.7 541 812 541C787.3 541 762.7 541 738.2 541C713.7 541 689.3 541 664.8 541C640.3 541 615.7 541 591 541C566.3 541 541.7 541 517 541C492.3 541 467.7 541 443 541C418.3 541 393.7 541 369 541C344.3 541 319.7 541 295.2 541C270.7 541 246.3 541 221.8 541C197.3 541 172.7 541 148 541C123.3 541 98.7 541 74 541C49.3 541 24.7 541 12.3 541L0 541Z" fill="#820feb"></path><path d="M0 461L12.3 460C24.7 459 49.3 457 74 457.5C98.7 458 123.3 461 148 463.2C172.7 465.3 197.3 466.7 221.8 466.3C246.3 466 270.7 464 295.2 464C319.7 464 344.3 466 369 464.7C393.7 463.3 418.3 458.7 443 458C467.7 457.3 492.3 460.7 517 459C541.7 457.3 566.3 450.7 591 448C615.7 445.3 640.3 446.7 664.8 447.2C689.3 447.7 713.7 447.3 738.2 450.5C762.7 453.7 787.3 460.3 812 462.3C836.7 464.3 861.3 461.7 886 458.3C910.7 455 935.3 451 947.7 449L960 447L960 541L947.7 541C935.3 541 910.7 541 886 541C861.3 541 836.7 541 812 541C787.3 541 762.7 541 738.2 541C713.7 541 689.3 541 664.8 541C640.3 541 615.7 541 591 541C566.3 541 541.7 541 517 541C492.3 541 467.7 541 443 541C418.3 541 393.7 541 369 541C344.3 541 319.7 541 295.2 541C270.7 541 246.3 541 221.8 541C197.3 541 172.7 541 148 541C123.3 541 98.7 541 74 541C49.3 541 24.7 541 12.3 541L0 541Z" fill="#7011eb"></path><path d="M0 493L12.3 490C24.7 487 49.3 481 74 477.8C98.7 474.7 123.3 474.3 148 474.7C172.7 475 197.3 476 221.8 479.3C246.3 482.7 270.7 488.3 295.2 490C319.7 491.7 344.3 489.3 369 488.3C393.7 487.3 418.3 487.7 443 485.2C467.7 482.7 492.3 477.3 517 474.7C541.7 472 566.3 472 591 472.3C615.7 472.7 640.3 473.3 664.8 475.5C689.3 477.7 713.7 481.3 738.2 484.7C762.7 488 787.3 491 812 488.7C836.7 486.3 861.3 478.7 886 475.2C910.7 471.7 935.3 472.3 947.7 472.7L960 473L960 541L947.7 541C935.3 541 910.7 541 886 541C861.3 541 836.7 541 812 541C787.3 541 762.7 541 738.2 541C713.7 541 689.3 541 664.8 541C640.3 541 615.7 541 591 541C566.3 541 541.7 541 517 541C492.3 541 467.7 541 443 541C418.3 541 393.7 541 369 541C344.3 541 319.7 541 295.2 541C270.7 541 246.3 541 221.8 541C197.3 541 172.7 541 148 541C123.3 541 98.7 541 74 541C49.3 541 24.7 541 12.3 541L0 541Z" fill="#5a14eb"></path><path d="M0 498L12.3 499.2C24.7 500.3 49.3 502.7 74 502.7C98.7 502.7 123.3 500.3 148 500.3C172.7 500.3 197.3 502.7 221.8 504.3C246.3 506 270.7 507 295.2 507.3C319.7 507.7 344.3 507.3 369 508.5C393.7 509.7 418.3 512.3 443 511.7C467.7 511 492.3 507 517 507.2C541.7 507.3 566.3 511.7 591 512.5C615.7 513.3 640.3 510.7 664.8 510.5C689.3 510.3 713.7 512.7 738.2 511.7C762.7 510.7 787.3 506.3 812 504.3C836.7 502.3 861.3 502.7 886 501.8C910.7 501 935.3 499 947.7 498L960 497L960 541L947.7 541C935.3 541 910.7 541 886 541C861.3 541 836.7 541 812 541C787.3 541 762.7 541 738.2 541C713.7 541 689.3 541 664.8 541C640.3 541 615.7 541 591 541C566.3 541 541.7 541 517 541C492.3 541 467.7 541 443 541C418.3 541 393.7 541 369 541C344.3 541 319.7 541 295.2 541C270.7 541 246.3 541 221.8 541C197.3 541 172.7 541 148 541C123.3 541 98.7 541 74 541C49.3 541 24.7 541 12.3 541L0 541Z" fill="#3e17eb"></path></svg>
